<?xml version="1.0" standalone="no"?>
<!DOCTYPE svg PUBLIC "-//W3C//DTD SVG 20010904//EN"
 "http://www.w3.org/TR/2001/REC-SVG-20010904/DTD/svg10.dtd">
<svg version="1.0" xmlns="http://www.w3.org/2000/svg"
 width="131.000000pt" height="131.000000pt" viewBox="0 0 131.000000 131.000000"
 preserveAspectRatio="xMidYMid meet">
<metadata>
Created by potrace 1.11, written by Peter Selinger 2001-2013
</metadata>
<g transform="translate(0.000000,131.000000) scale(0.100000,-0.100000)"
fill="#000000" stroke="none">
<path d="M1105 950 c-8 -13 24 -44 55 -55 9 -3 24 -19 34 -36 24 -40 17 -136
-15 -203 -40 -87 -118 -139 -265 -176 -96 -25 -168 -25 -213 -2 -59 29 -62 45
-34 141 20 67 23 88 14 107 -10 24 -48 46 -63 38 -4 -3 -25 -38 -48 -78 -22
-41 -56 -88 -74 -104 -37 -33 -164 -89 -229 -101 -42 -7 -101 2 -111 18 -4 5
39 56 95 113 113 116 159 179 159 220 0 27 -33 68 -56 68 -21 0 -66 -43 -99
-94 -18 -29 -65 -89 -104 -134 -87 -101 -98 -118 -106 -161 -11 -66 47 -111
145 -111 55 0 165 34 263 80 66 31 90 32 95 4 14 -74 181 -128 307 -99 111 26
291 97 346 136 54 38 74 92 74 199 0 81 -4 102 -24 142 -14 26 -34 57 -46 68
-27 25 -89 38 -100 20z"/>
</g>
</svg>
